# xmcd CD database file
#
# Track frame offsets:
#	150
#	36239
#	54226
#	86664
#	130382
#	153732
#	173620
#	191963
#	218297
#
# Disc length: 3172 seconds
#
# Revision: 0
# Processed by: cddbd v1.5.2PL0 Copyright (c) Steve Scherf et al.
# Submitted via: CDex 1.70beta2
#
DISCID=760c6209
DTITLE=菊地成孔とぺぺ・トルメント・アスカラール - New York Hell Sonic Ballet
DYEAR=2009
DGENRE=Jazz
TTITLE0=Killing Time
TTITLE1=New York Hell Sonic Ballet
TTITLE2=アリア 私が土の下に横たわる時　〜オペラ「ディドとエネアス」より
TTITLE3=行列
TTITLE4=儀式 〜組曲「キャバレー・タンガフリーク」より
TTITLE5=時さえ忘れて
TTITLE6=導引
TTITLE7=嵐が丘
TTITLE8=暗くなるまで待って
EXTD=YEAR: 2009
EXTT0=
EXTT1=
EXTT2=
EXTT3=
EXTT4=
EXTT5=
EXTT6=
EXTT7=
EXTT8=
PLAYORDER=
